<svg xmlns="http://www.w3.org/2000/svg" xmlns:v="https://svgstorm.com"
viewBox = "0 0 738 702"
width="738"
height="702">
<g fill="None" fill-opacity="0.0" stroke="#FEFFFE" stroke-opacity="1.00" stroke-width="0.3"><path d="
M 0.00 702.00 
L 400.00 702.00
C 399.72 690.47 400.38 678.48 400.00 667.00 C 399.62 655.52 397.14 641.37 410.00 644.00 C 422.86 646.62 431.97 644.64 444.00 645.00 C 456.03 645.36 467.79 645.47 479.00 645.00 C 490.21 644.53 500.47 642.88 511.00 642.00 C 521.53 641.12 531.52 638.10 541.22 636.22 C 550.93 634.34 559.51 631.35 568.22 628.22 C 576.94 625.10 584.88 621.96 592.69 617.69 C 600.51 613.43 607.69 609.75 614.70 604.70 C 621.70 599.64 627.57 594.86 633.75 588.75 C 639.93 582.64 645.09 577.27 650.25 570.25 C 655.41 563.23 659.82 555.92 663.77 547.77 C 667.72 539.62 670.52 531.16 672.98 521.98 C 675.44 512.79 677.65 502.81 678.78 492.78 C 679.91 482.75 679.51 470.06 679.00 460.00 C 678.49 449.94 676.61 438.98 674.22 429.78 C 671.84 420.58 669.13 411.27 664.70 403.31 C 660.26 395.34 656.74 388.51 651.23 381.77 C 645.72 375.03 640.69 369.55 634.25 363.75 C 627.81 357.95 621.41 353.60 614.25 348.75 C 607.10 343.89 599.72 340.21 591.77 336.23 C 583.82 332.25 575.52 329.20 566.98 326.02 C 558.43 322.85 548.88 319.67 539.93 317.07 C 530.97 314.48 521.87 311.75 512.78 309.22 C 503.69 306.69 494.09 304.76 484.98 302.02 C 475.86 299.29 466.17 297.74 456.98 295.02 C 447.78 292.31 438.35 290.33 428.99 288.01 C 419.63 285.68 410.42 282.22 401.00 280.00
C 398.67 316.16 400.66 353.42 400.00 390.00
C 390.38 388.22 380.83 384.89 371.32 382.68 C 361.82 380.46 352.10 376.97 342.92 374.08 C 333.75 371.18 324.60 367.74 315.92 364.08 C 307.25 360.41 299.61 355.97 291.75 351.25 C 283.90 346.52 277.13 341.81 270.25 335.75 C 263.36 329.69 258.07 324.88 252.70 317.30 C 247.32 309.72 242.92 302.82 239.08 293.92 C 235.24 285.03 232.30 275.95 230.07 265.93 C 227.84 255.90 227.05 242.94 227.00 232.00 C 226.95 221.06 227.27 207.25 229.00 197.00 C 230.73 186.75 233.87 178.07 236.77 168.77 C 239.67 159.47 243.62 151.43 248.25 143.25 C 252.89 135.08 257.86 128.90 263.75 121.75 C 269.65 114.60 275.21 109.03 282.70 103.70 C 290.19 98.36 296.20 92.79 304.70 88.70 C 313.19 84.60 319.63 80.27 329.22 77.22 C 338.82 74.17 347.08 70.73 358.01 69.01 C 368.93 67.29 376.70 63.08 389.67 63.67 C 402.64 64.26 400.60 48.85 400.00 37.00 C 399.40 25.15 400.45 11.97 400.00 0.00
L 0.00 0.00
L 0.00 702.00
M 184.00 66.00 
C 184.00 256.17 184.00 447.65 184.00 637.00
C 143.33 637.00 102.67 637.00 62.00 637.00
C 62.00 446.67 62.00 256.33 62.00 66.00
C 102.67 66.00 143.33 66.00 184.00 66.00
M 400.00 550.00 
C 400.00 581.00 400.00 612.00 400.00 643.00
C 352.07 637.39 304.03 624.75 266.30 592.70 C 228.57 560.65 209.78 513.39 210.00 465.00
C 247.33 465.00 284.67 465.00 322.00 465.00
C 320.07 508.80 358.52 544.55 400.00 549.00
C 400.00 496.33 400.00 443.67 400.00 391.00
C 443.09 400.41 487.78 409.10 528.23 426.77 C 568.68 444.45 576.38 505.23 539.25 532.25 C 502.12 559.27 444.60 556.65 400.00 550.00 Z"/>
</g>
<g fill="None" fill-opacity="0.0" stroke="#000000" stroke-opacity="1.00" stroke-width="0.3"><path d="
M 400.00 702.00 
L 738.00 702.00
L 738.00 0.00
L 400.00 0.00
C 400.45 11.97 399.40 25.15 400.00 37.00 C 400.60 48.85 402.64 64.26 389.67 63.67 C 376.70 63.08 368.93 67.29 358.01 69.01 C 347.08 70.73 338.82 74.17 329.22 77.22 C 319.63 80.27 313.19 84.60 304.70 88.70 C 296.20 92.79 290.19 98.36 282.70 103.70 C 275.21 109.03 269.65 114.60 263.75 121.75 C 257.86 128.90 252.89 135.08 248.25 143.25 C 243.62 151.43 239.67 159.47 236.77 168.77 C 233.87 178.07 230.73 186.75 229.00 197.00 C 227.27 207.25 226.95 221.06 227.00 232.00 C 227.05 242.94 227.84 255.90 230.07 265.93 C 232.30 275.95 235.24 285.03 239.08 293.92 C 242.92 302.82 247.32 309.72 252.70 317.30 C 258.07 324.88 263.36 329.69 270.25 335.75 C 277.13 341.81 283.90 346.52 291.75 351.25 C 299.61 355.97 307.25 360.41 315.92 364.08 C 324.60 367.74 333.75 371.18 342.92 374.08 C 352.10 376.97 361.82 380.46 371.32 382.68 C 380.83 384.89 390.38 388.22 400.00 390.00
C 400.66 353.42 398.67 316.16 401.00 280.00
C 410.42 282.22 419.63 285.68 428.99 288.01 C 438.35 290.33 447.78 292.31 456.98 295.02 C 466.17 297.74 475.86 299.29 484.98 302.02 C 494.09 304.76 503.69 306.69 512.78 309.22 C 521.87 311.75 530.97 314.48 539.93 317.07 C 548.88 319.67 558.43 322.85 566.98 326.02 C 575.52 329.20 583.82 332.25 591.77 336.23 C 599.72 340.21 607.10 343.89 614.25 348.75 C 621.41 353.60 627.81 357.95 634.25 363.75 C 640.69 369.55 645.72 375.03 651.23 381.77 C 656.74 388.51 660.26 395.34 664.70 403.31 C 669.13 411.27 671.84 420.58 674.22 429.78 C 676.61 438.98 678.49 449.94 679.00 460.00 C 679.51 470.06 679.91 482.75 678.78 492.78 C 677.65 502.81 675.44 512.79 672.98 521.98 C 670.52 531.16 667.72 539.62 663.77 547.77 C 659.82 555.92 655.41 563.23 650.25 570.25 C 645.09 577.27 639.93 582.64 633.75 588.75 C 627.57 594.86 621.70 599.64 614.70 604.70 C 607.69 609.75 600.51 613.43 592.69 617.69 C 584.88 621.96 576.94 625.10 568.22 628.22 C 559.51 631.35 550.93 634.34 541.22 636.22 C 531.52 638.10 521.53 641.12 511.00 642.00 C 500.47 642.88 490.21 644.53 479.00 645.00 C 467.79 645.47 456.03 645.36 444.00 645.00 C 431.97 644.64 422.86 646.62 410.00 644.00 C 397.14 641.37 399.62 655.52 400.00 667.00 C 400.38 678.48 399.72 690.47 400.00 702.00
M 665.00 234.00 
C 653.24 234.48 642.90 233.37 631.00 234.00 C 619.10 234.63 608.29 232.81 596.00 234.00 C 583.71 235.19 574.08 231.47 561.00 234.00 C 547.92 236.53 546.73 225.65 545.67 215.33 C 544.61 205.01 539.29 199.38 534.75 191.25 C 530.21 183.13 524.46 179.23 517.30 173.70 C 510.15 168.16 503.78 165.37 494.93 162.07 C 486.07 158.77 476.02 157.48 466.00 156.00 C 455.98 154.52 443.90 153.83 433.00 154.00 C 422.10 154.17 410.77 155.00 400.00 156.00
C 399.19 141.61 401.08 129.63 400.00 115.00 C 398.92 100.37 402.07 89.50 400.00 74.00 C 397.93 58.50 415.08 60.86 428.00 61.00 C 440.92 61.14 456.32 60.87 469.00 61.00 C 481.68 61.13 494.34 63.33 506.07 64.93 C 517.81 66.53 529.46 68.66 540.07 71.93 C 550.68 75.19 560.59 78.35 570.07 82.93 C 579.55 87.50 587.53 92.43 595.75 98.25 C 603.96 104.07 611.31 109.39 618.25 116.75 C 625.19 124.11 631.12 130.79 636.75 139.25 C 642.39 147.71 646.43 156.47 650.92 166.08 C 655.42 175.68 658.35 186.23 660.93 197.07 C 663.50 207.91 664.73 222.30 665.00 234.00
M 400.00 157.00 
C 400.00 198.00 400.00 239.00 400.00 280.00
C 369.26 273.85 340.27 252.86 340.00 219.00 C 339.73 185.13 366.45 158.37 400.00 157.00 Z"/>
</g>
<g fill="None" fill-opacity="0.0" stroke="#FFFFFF" stroke-opacity="1.00" stroke-width="0.3"><path d="
M 665.00 234.00 
C 664.73 222.30 663.50 207.91 660.93 197.07 C 658.35 186.23 655.42 175.68 650.92 166.08 C 646.43 156.47 642.39 147.71 636.75 139.25 C 631.12 130.79 625.19 124.11 618.25 116.75 C 611.31 109.39 603.96 104.07 595.75 98.25 C 587.53 92.43 579.55 87.50 570.07 82.93 C 560.59 78.35 550.68 75.19 540.07 71.93 C 529.46 68.66 517.81 66.53 506.07 64.93 C 494.34 63.33 481.68 61.13 469.00 61.00 C 456.32 60.87 440.92 61.14 428.00 61.00 C 415.08 60.86 397.93 58.50 400.00 74.00 C 402.07 89.50 398.92 100.37 400.00 115.00 C 401.08 129.63 399.19 141.61 400.00 156.00
C 410.77 155.00 422.10 154.17 433.00 154.00 C 443.90 153.83 455.98 154.52 466.00 156.00 C 476.02 157.48 486.07 158.77 494.93 162.07 C 503.78 165.37 510.15 168.16 517.30 173.70 C 524.46 179.23 530.21 183.13 534.75 191.25 C 539.29 199.38 544.61 205.01 545.67 215.33 C 546.73 225.65 547.92 236.53 561.00 234.00 C 574.08 231.47 583.71 235.19 596.00 234.00 C 608.29 232.81 619.10 234.63 631.00 234.00 C 642.90 233.37 653.24 234.48 665.00 234.00 Z"/>
</g>
<g fill="None" fill-opacity="0.0" stroke="#000000" stroke-opacity="1.00" stroke-width="0.3"><path d="
M 184.00 66.00 
C 143.33 66.00 102.67 66.00 62.00 66.00
C 62.00 256.33 62.00 446.67 62.00 637.00
C 102.67 637.00 143.33 637.00 184.00 637.00
C 184.00 447.65 184.00 256.17 184.00 66.00 Z"/>
</g>
<g fill="None" fill-opacity="0.0" stroke="#FFFFFF" stroke-opacity="1.00" stroke-width="0.3"><path d="
M 400.00 157.00 
C 366.45 158.37 339.73 185.13 340.00 219.00 C 340.27 252.86 369.26 273.85 400.00 280.00
C 400.00 239.00 400.00 198.00 400.00 157.00 Z"/>
</g>
<g fill="None" fill-opacity="0.0" stroke="#000000" stroke-opacity="1.00" stroke-width="0.3"><path d="
M 400.00 550.00 
C 444.60 556.65 502.12 559.27 539.25 532.25 C 576.38 505.23 568.68 444.45 528.23 426.77 C 487.78 409.10 443.09 400.41 400.00 391.00
C 400.00 443.67 400.00 496.33 400.00 549.00
C 358.52 544.55 320.07 508.80 322.00 465.00
C 284.67 465.00 247.33 465.00 210.00 465.00
C 209.78 513.39 228.57 560.65 266.30 592.70 C 304.03 624.75 352.07 637.39 400.00 643.00
C 400.00 612.00 400.00 581.00 400.00 550.00 Z"/>
</g>
<g fill="#FEFFFE" fill-opacity="1.00" stroke="None">
<path d="
M 0.00 702.00 
L 400.00 702.00
C 399.72 690.47 400.38 678.48 400.00 667.00 C 399.62 655.52 397.14 641.37 410.00 644.00 C 422.86 646.62 431.97 644.64 444.00 645.00 C 456.03 645.36 467.79 645.47 479.00 645.00 C 490.21 644.53 500.47 642.88 511.00 642.00 C 521.53 641.12 531.52 638.10 541.22 636.22 C 550.93 634.34 559.51 631.35 568.22 628.22 C 576.94 625.10 584.88 621.96 592.69 617.69 C 600.51 613.43 607.69 609.75 614.70 604.70 C 621.70 599.64 627.57 594.86 633.75 588.75 C 639.93 582.64 645.09 577.27 650.25 570.25 C 655.41 563.23 659.82 555.92 663.77 547.77 C 667.72 539.62 670.52 531.16 672.98 521.98 C 675.44 512.79 677.65 502.81 678.78 492.78 C 679.91 482.75 679.51 470.06 679.00 460.00 C 678.49 449.94 676.61 438.98 674.22 429.78 C 671.84 420.58 669.13 411.27 664.70 403.31 C 660.26 395.34 656.74 388.51 651.23 381.77 C 645.72 375.03 640.69 369.55 634.25 363.75 C 627.81 357.95 621.41 353.60 614.25 348.75 C 607.10 343.89 599.72 340.21 591.77 336.23 C 583.82 332.25 575.52 329.20 566.98 326.02 C 558.43 322.85 548.88 319.67 539.93 317.07 C 530.97 314.48 521.87 311.75 512.78 309.22 C 503.69 306.69 494.09 304.76 484.98 302.02 C 475.86 299.29 466.17 297.74 456.98 295.02 C 447.78 292.31 438.35 290.33 428.99 288.01 C 419.63 285.68 410.42 282.22 401.00 280.00
C 398.67 316.16 400.66 353.42 400.00 390.00
C 390.38 388.22 380.83 384.89 371.32 382.68 C 361.82 380.46 352.10 376.97 342.92 374.08 C 333.75 371.18 324.60 367.74 315.92 364.08 C 307.25 360.41 299.61 355.97 291.75 351.25 C 283.90 346.52 277.13 341.81 270.25 335.75 C 263.36 329.69 258.07 324.88 252.70 317.30 C 247.32 309.72 242.92 302.82 239.08 293.92 C 235.24 285.03 232.30 275.95 230.07 265.93 C 227.84 255.90 227.05 242.94 227.00 232.00 C 226.95 221.06 227.27 207.25 229.00 197.00 C 230.73 186.75 233.87 178.07 236.77 168.77 C 239.67 159.47 243.62 151.43 248.25 143.25 C 252.89 135.08 257.86 128.90 263.75 121.75 C 269.65 114.60 275.21 109.03 282.70 103.70 C 290.19 98.36 296.20 92.79 304.70 88.70 C 313.19 84.60 319.63 80.27 329.22 77.22 C 338.82 74.17 347.08 70.73 358.01 69.01 C 368.93 67.29 376.70 63.08 389.67 63.67 C 402.64 64.26 400.60 48.85 400.00 37.00 C 399.40 25.15 400.45 11.97 400.00 0.00
L 0.00 0.00
L 0.00 702.00
M 184.00 66.00 
C 184.00 256.17 184.00 447.65 184.00 637.00
C 143.33 637.00 102.67 637.00 62.00 637.00
C 62.00 446.67 62.00 256.33 62.00 66.00
C 102.67 66.00 143.33 66.00 184.00 66.00
M 400.00 550.00 
C 400.00 581.00 400.00 612.00 400.00 643.00
C 352.07 637.39 304.03 624.75 266.30 592.70 C 228.57 560.65 209.78 513.39 210.00 465.00
C 247.33 465.00 284.67 465.00 322.00 465.00
C 320.07 508.80 358.52 544.55 400.00 549.00
C 400.00 496.33 400.00 443.67 400.00 391.00
C 443.09 400.41 487.78 409.10 528.23 426.77 C 568.68 444.45 576.38 505.23 539.25 532.25 C 502.12 559.27 444.60 556.65 400.00 550.00 Z"/>
</g>
<g fill="#000000" fill-opacity="1.00" stroke="None">
<path d="
M 400.00 702.00 
L 738.00 702.00
L 738.00 0.00
L 400.00 0.00
C 400.45 11.97 399.40 25.15 400.00 37.00 C 400.60 48.85 402.64 64.26 389.67 63.67 C 376.70 63.08 368.93 67.29 358.01 69.01 C 347.08 70.73 338.82 74.17 329.22 77.22 C 319.63 80.27 313.19 84.60 304.70 88.70 C 296.20 92.79 290.19 98.36 282.70 103.70 C 275.21 109.03 269.65 114.60 263.75 121.75 C 257.86 128.90 252.89 135.08 248.25 143.25 C 243.62 151.43 239.67 159.47 236.77 168.77 C 233.87 178.07 230.73 186.75 229.00 197.00 C 227.27 207.25 226.95 221.06 227.00 232.00 C 227.05 242.94 227.84 255.90 230.07 265.93 C 232.30 275.95 235.24 285.03 239.08 293.92 C 242.92 302.82 247.32 309.72 252.70 317.30 C 258.07 324.88 263.36 329.69 270.25 335.75 C 277.13 341.81 283.90 346.52 291.75 351.25 C 299.61 355.97 307.25 360.41 315.92 364.08 C 324.60 367.74 333.75 371.18 342.92 374.08 C 352.10 376.97 361.82 380.46 371.32 382.68 C 380.83 384.89 390.38 388.22 400.00 390.00
C 400.66 353.42 398.67 316.16 401.00 280.00
C 410.42 282.22 419.63 285.68 428.99 288.01 C 438.35 290.33 447.78 292.31 456.98 295.02 C 466.17 297.74 475.86 299.29 484.98 302.02 C 494.09 304.76 503.69 306.69 512.78 309.22 C 521.87 311.75 530.97 314.48 539.93 317.07 C 548.88 319.67 558.43 322.85 566.98 326.02 C 575.52 329.20 583.82 332.25 591.77 336.23 C 599.72 340.21 607.10 343.89 614.25 348.75 C 621.41 353.60 627.81 357.95 634.25 363.75 C 640.69 369.55 645.72 375.03 651.23 381.77 C 656.74 388.51 660.26 395.34 664.70 403.31 C 669.13 411.27 671.84 420.58 674.22 429.78 C 676.61 438.98 678.49 449.94 679.00 460.00 C 679.51 470.06 679.91 482.75 678.78 492.78 C 677.65 502.81 675.44 512.79 672.98 521.98 C 670.52 531.16 667.72 539.62 663.77 547.77 C 659.82 555.92 655.41 563.23 650.25 570.25 C 645.09 577.27 639.93 582.64 633.75 588.75 C 627.57 594.86 621.70 599.64 614.70 604.70 C 607.69 609.75 600.51 613.43 592.69 617.69 C 584.88 621.96 576.94 625.10 568.22 628.22 C 559.51 631.35 550.93 634.34 541.22 636.22 C 531.52 638.10 521.53 641.12 511.00 642.00 C 500.47 642.88 490.21 644.53 479.00 645.00 C 467.79 645.47 456.03 645.36 444.00 645.00 C 431.97 644.64 422.86 646.62 410.00 644.00 C 397.14 641.37 399.62 655.52 400.00 667.00 C 400.38 678.48 399.72 690.47 400.00 702.00
M 665.00 234.00 
C 653.24 234.48 642.90 233.37 631.00 234.00 C 619.10 234.63 608.29 232.81 596.00 234.00 C 583.71 235.19 574.08 231.47 561.00 234.00 C 547.92 236.53 546.73 225.65 545.67 215.33 C 544.61 205.01 539.29 199.38 534.75 191.25 C 530.21 183.13 524.46 179.23 517.30 173.70 C 510.15 168.16 503.78 165.37 494.93 162.07 C 486.07 158.77 476.02 157.48 466.00 156.00 C 455.98 154.52 443.90 153.83 433.00 154.00 C 422.10 154.17 410.77 155.00 400.00 156.00
C 399.19 141.61 401.08 129.63 400.00 115.00 C 398.92 100.37 402.07 89.50 400.00 74.00 C 397.93 58.50 415.08 60.86 428.00 61.00 C 440.92 61.14 456.32 60.87 469.00 61.00 C 481.68 61.13 494.34 63.33 506.07 64.93 C 517.81 66.53 529.46 68.66 540.07 71.93 C 550.68 75.19 560.59 78.35 570.07 82.93 C 579.55 87.50 587.53 92.43 595.75 98.25 C 603.96 104.07 611.31 109.39 618.25 116.75 C 625.19 124.11 631.12 130.79 636.75 139.25 C 642.39 147.71 646.43 156.47 650.92 166.08 C 655.42 175.68 658.35 186.23 660.93 197.07 C 663.50 207.91 664.73 222.30 665.00 234.00
M 400.00 157.00 
C 400.00 198.00 400.00 239.00 400.00 280.00
C 369.26 273.85 340.27 252.86 340.00 219.00 C 339.73 185.13 366.45 158.37 400.00 157.00 Z"/>
</g>
<g fill="#FFFFFF" fill-opacity="1.00" stroke="None">
<path d="
M 665.00 234.00 
C 664.73 222.30 663.50 207.91 660.93 197.07 C 658.35 186.23 655.42 175.68 650.92 166.08 C 646.43 156.47 642.39 147.71 636.75 139.25 C 631.12 130.79 625.19 124.11 618.25 116.75 C 611.31 109.39 603.96 104.07 595.75 98.25 C 587.53 92.43 579.55 87.50 570.07 82.93 C 560.59 78.35 550.68 75.19 540.07 71.93 C 529.46 68.66 517.81 66.53 506.07 64.93 C 494.34 63.33 481.68 61.13 469.00 61.00 C 456.32 60.87 440.92 61.14 428.00 61.00 C 415.08 60.86 397.93 58.50 400.00 74.00 C 402.07 89.50 398.92 100.37 400.00 115.00 C 401.08 129.63 399.19 141.61 400.00 156.00
C 410.77 155.00 422.10 154.17 433.00 154.00 C 443.90 153.83 455.98 154.52 466.00 156.00 C 476.02 157.48 486.07 158.77 494.93 162.07 C 503.78 165.37 510.15 168.16 517.30 173.70 C 524.46 179.23 530.21 183.13 534.75 191.25 C 539.29 199.38 544.61 205.01 545.67 215.33 C 546.73 225.65 547.92 236.53 561.00 234.00 C 574.08 231.47 583.71 235.19 596.00 234.00 C 608.29 232.81 619.10 234.63 631.00 234.00 C 642.90 233.37 653.24 234.48 665.00 234.00 Z"/>
</g>
<g fill="#000000" fill-opacity="1.00" stroke="None">
<path d="
M 184.00 66.00 
C 143.33 66.00 102.67 66.00 62.00 66.00
C 62.00 256.33 62.00 446.67 62.00 637.00
C 102.67 637.00 143.33 637.00 184.00 637.00
C 184.00 447.65 184.00 256.17 184.00 66.00 Z"/>
</g>
<g fill="#FFFFFF" fill-opacity="1.00" stroke="None">
<path d="
M 400.00 157.00 
C 366.45 158.37 339.73 185.13 340.00 219.00 C 340.27 252.86 369.26 273.85 400.00 280.00
C 400.00 239.00 400.00 198.00 400.00 157.00 Z"/>
</g>
<g fill="#000000" fill-opacity="1.00" stroke="None">
<path d="
M 400.00 550.00 
C 444.60 556.65 502.12 559.27 539.25 532.25 C 576.38 505.23 568.68 444.45 528.23 426.77 C 487.78 409.10 443.09 400.41 400.00 391.00
C 400.00 443.67 400.00 496.33 400.00 549.00
C 358.52 544.55 320.07 508.80 322.00 465.00
C 284.67 465.00 247.33 465.00 210.00 465.00
C 209.78 513.39 228.57 560.65 266.30 592.70 C 304.03 624.75 352.07 637.39 400.00 643.00
C 400.00 612.00 400.00 581.00 400.00 550.00 Z"/>
</g>
</svg>